<mxfile host="app.diagrams.net" modified="2023-01-31T14:28:37.235Z" agent="5.0 (Macintosh; Intel Mac OS X 10_15_7) AppleWebKit/605.1.15 (KHTML, like Gecko) Version/15.5 Safari/605.1.15" etag="VymklzU0a--39776qSWV" version="20.8.13" type="github" pages="2">
  <diagram name="向消費者推薦服務" id="dhUgk3jcvv3Kj5D0MqxD">
    <mxGraphModel dx="2074" dy="1187" grid="1" gridSize="10" guides="1" tooltips="1" connect="1" arrows="1" fold="1" page="1" pageScale="1" pageWidth="827" pageHeight="1169" math="0" shadow="0">
      <root>
        <mxCell id="0" />
        <mxCell id="1" parent="0" />
        <mxCell id="ElCQ_ME15FlK9ruMkMYT-35" value="" style="rounded=0;whiteSpace=wrap;html=1;fontSize=24;" vertex="1" parent="1">
          <mxGeometry x="30" y="180" width="1220" height="750" as="geometry" />
        </mxCell>
        <mxCell id="ElCQ_ME15FlK9ruMkMYT-1" value="Actor" style="shape=umlActor;verticalLabelPosition=bottom;verticalAlign=top;html=1;outlineConnect=0;" vertex="1" parent="1">
          <mxGeometry x="70" y="370" width="30" height="60" as="geometry" />
        </mxCell>
        <mxCell id="ElCQ_ME15FlK9ruMkMYT-2" value="&lt;font style=&quot;font-size: 24px;&quot;&gt;消費者行為分析&lt;/font&gt;" style="text;html=1;strokeColor=none;fillColor=none;align=center;verticalAlign=middle;whiteSpace=wrap;rounded=0;" vertex="1" parent="1">
          <mxGeometry x="140" y="350" width="180" height="50" as="geometry" />
        </mxCell>
        <mxCell id="ElCQ_ME15FlK9ruMkMYT-9" value="" style="endArrow=classic;html=1;rounded=0;fontSize=24;" edge="1" parent="1">
          <mxGeometry width="50" height="50" relative="1" as="geometry">
            <mxPoint x="120" y="400" as="sourcePoint" />
            <mxPoint x="340" y="400" as="targetPoint" />
          </mxGeometry>
        </mxCell>
        <mxCell id="ElCQ_ME15FlK9ruMkMYT-10" value="消費特徵集合" style="rounded=1;whiteSpace=wrap;html=1;fontSize=24;" vertex="1" parent="1">
          <mxGeometry x="350" y="370" width="190" height="60" as="geometry" />
        </mxCell>
        <mxCell id="ElCQ_ME15FlK9ruMkMYT-12" value="向消費者推薦某個服務" style="text;html=1;strokeColor=none;fillColor=none;align=center;verticalAlign=middle;whiteSpace=wrap;rounded=0;fontSize=24;" vertex="1" parent="1">
          <mxGeometry x="520" y="190" width="280" height="30" as="geometry" />
        </mxCell>
        <mxCell id="ElCQ_ME15FlK9ruMkMYT-13" value="" style="shape=table;startSize=0;container=1;collapsible=0;childLayout=tableLayout;fontSize=24;" vertex="1" parent="1">
          <mxGeometry x="284" y="610" width="260" height="270" as="geometry" />
        </mxCell>
        <mxCell id="ElCQ_ME15FlK9ruMkMYT-14" value="" style="shape=tableRow;horizontal=0;startSize=0;swimlaneHead=0;swimlaneBody=0;strokeColor=inherit;top=0;left=0;bottom=0;right=0;collapsible=0;dropTarget=0;fillColor=none;points=[[0,0.5],[1,0.5]];portConstraint=eastwest;fontSize=24;" vertex="1" parent="ElCQ_ME15FlK9ruMkMYT-13">
          <mxGeometry width="260" height="68" as="geometry" />
        </mxCell>
        <mxCell id="ElCQ_ME15FlK9ruMkMYT-15" value="服務" style="shape=partialRectangle;html=1;whiteSpace=wrap;connectable=0;strokeColor=inherit;overflow=hidden;fillColor=none;top=0;left=0;bottom=0;right=0;pointerEvents=1;fontSize=24;" vertex="1" parent="ElCQ_ME15FlK9ruMkMYT-14">
          <mxGeometry width="130" height="68" as="geometry">
            <mxRectangle width="130" height="68" as="alternateBounds" />
          </mxGeometry>
        </mxCell>
        <mxCell id="ElCQ_ME15FlK9ruMkMYT-16" value="特徵" style="shape=partialRectangle;html=1;whiteSpace=wrap;connectable=0;strokeColor=inherit;overflow=hidden;fillColor=none;top=0;left=0;bottom=0;right=0;pointerEvents=1;fontSize=24;" vertex="1" parent="ElCQ_ME15FlK9ruMkMYT-14">
          <mxGeometry x="130" width="130" height="68" as="geometry">
            <mxRectangle width="130" height="68" as="alternateBounds" />
          </mxGeometry>
        </mxCell>
        <mxCell id="ElCQ_ME15FlK9ruMkMYT-17" value="" style="shape=tableRow;horizontal=0;startSize=0;swimlaneHead=0;swimlaneBody=0;strokeColor=inherit;top=0;left=0;bottom=0;right=0;collapsible=0;dropTarget=0;fillColor=none;points=[[0,0.5],[1,0.5]];portConstraint=eastwest;fontSize=24;" vertex="1" parent="ElCQ_ME15FlK9ruMkMYT-13">
          <mxGeometry y="68" width="260" height="67" as="geometry" />
        </mxCell>
        <mxCell id="ElCQ_ME15FlK9ruMkMYT-18" value="A" style="shape=partialRectangle;html=1;whiteSpace=wrap;connectable=0;strokeColor=inherit;overflow=hidden;fillColor=none;top=0;left=0;bottom=0;right=0;pointerEvents=1;fontSize=24;" vertex="1" parent="ElCQ_ME15FlK9ruMkMYT-17">
          <mxGeometry width="130" height="67" as="geometry">
            <mxRectangle width="130" height="67" as="alternateBounds" />
          </mxGeometry>
        </mxCell>
        <mxCell id="ElCQ_ME15FlK9ruMkMYT-19" value="" style="shape=partialRectangle;html=1;whiteSpace=wrap;connectable=0;strokeColor=inherit;overflow=hidden;fillColor=none;top=0;left=0;bottom=0;right=0;pointerEvents=1;fontSize=24;" vertex="1" parent="ElCQ_ME15FlK9ruMkMYT-17">
          <mxGeometry x="130" width="130" height="67" as="geometry">
            <mxRectangle width="130" height="67" as="alternateBounds" />
          </mxGeometry>
        </mxCell>
        <mxCell id="ElCQ_ME15FlK9ruMkMYT-20" value="" style="shape=tableRow;horizontal=0;startSize=0;swimlaneHead=0;swimlaneBody=0;strokeColor=inherit;top=0;left=0;bottom=0;right=0;collapsible=0;dropTarget=0;fillColor=none;points=[[0,0.5],[1,0.5]];portConstraint=eastwest;fontSize=24;" vertex="1" parent="ElCQ_ME15FlK9ruMkMYT-13">
          <mxGeometry y="135" width="260" height="68" as="geometry" />
        </mxCell>
        <mxCell id="ElCQ_ME15FlK9ruMkMYT-21" value="B" style="shape=partialRectangle;html=1;whiteSpace=wrap;connectable=0;strokeColor=inherit;overflow=hidden;fillColor=none;top=0;left=0;bottom=0;right=0;pointerEvents=1;fontSize=24;" vertex="1" parent="ElCQ_ME15FlK9ruMkMYT-20">
          <mxGeometry width="130" height="68" as="geometry">
            <mxRectangle width="130" height="68" as="alternateBounds" />
          </mxGeometry>
        </mxCell>
        <mxCell id="ElCQ_ME15FlK9ruMkMYT-22" value="" style="shape=partialRectangle;html=1;whiteSpace=wrap;connectable=0;strokeColor=inherit;overflow=hidden;fillColor=none;top=0;left=0;bottom=0;right=0;pointerEvents=1;fontSize=24;" vertex="1" parent="ElCQ_ME15FlK9ruMkMYT-20">
          <mxGeometry x="130" width="130" height="68" as="geometry">
            <mxRectangle width="130" height="68" as="alternateBounds" />
          </mxGeometry>
        </mxCell>
        <mxCell id="ElCQ_ME15FlK9ruMkMYT-23" value="" style="shape=tableRow;horizontal=0;startSize=0;swimlaneHead=0;swimlaneBody=0;strokeColor=inherit;top=0;left=0;bottom=0;right=0;collapsible=0;dropTarget=0;fillColor=none;points=[[0,0.5],[1,0.5]];portConstraint=eastwest;fontSize=24;" vertex="1" parent="ElCQ_ME15FlK9ruMkMYT-13">
          <mxGeometry y="203" width="260" height="67" as="geometry" />
        </mxCell>
        <mxCell id="ElCQ_ME15FlK9ruMkMYT-24" value="C" style="shape=partialRectangle;html=1;whiteSpace=wrap;connectable=0;strokeColor=inherit;overflow=hidden;fillColor=none;top=0;left=0;bottom=0;right=0;pointerEvents=1;fontSize=24;" vertex="1" parent="ElCQ_ME15FlK9ruMkMYT-23">
          <mxGeometry width="130" height="67" as="geometry">
            <mxRectangle width="130" height="67" as="alternateBounds" />
          </mxGeometry>
        </mxCell>
        <mxCell id="ElCQ_ME15FlK9ruMkMYT-25" value="" style="shape=partialRectangle;html=1;whiteSpace=wrap;connectable=0;strokeColor=inherit;overflow=hidden;fillColor=none;top=0;left=0;bottom=0;right=0;pointerEvents=1;fontSize=24;" vertex="1" parent="ElCQ_ME15FlK9ruMkMYT-23">
          <mxGeometry x="130" width="130" height="67" as="geometry">
            <mxRectangle width="130" height="67" as="alternateBounds" />
          </mxGeometry>
        </mxCell>
        <mxCell id="ElCQ_ME15FlK9ruMkMYT-26" value="服務列表" style="text;html=1;strokeColor=none;fillColor=none;align=center;verticalAlign=middle;whiteSpace=wrap;rounded=0;fontSize=24;" vertex="1" parent="1">
          <mxGeometry x="350" y="570" width="140" height="30" as="geometry" />
        </mxCell>
        <mxCell id="ElCQ_ME15FlK9ruMkMYT-28" value="" style="endArrow=none;dashed=1;html=1;rounded=0;fontSize=24;exitX=1;exitY=0.5;exitDx=0;exitDy=0;" edge="1" parent="1" source="ElCQ_ME15FlK9ruMkMYT-10" target="ElCQ_ME15FlK9ruMkMYT-29">
          <mxGeometry width="50" height="50" relative="1" as="geometry">
            <mxPoint x="390" y="620" as="sourcePoint" />
            <mxPoint x="740" y="400" as="targetPoint" />
          </mxGeometry>
        </mxCell>
        <mxCell id="ElCQ_ME15FlK9ruMkMYT-29" value="匹配系統" style="ellipse;whiteSpace=wrap;html=1;aspect=fixed;fontSize=24;" vertex="1" parent="1">
          <mxGeometry x="680" y="470" width="160" height="160" as="geometry" />
        </mxCell>
        <mxCell id="ElCQ_ME15FlK9ruMkMYT-30" value="" style="endArrow=none;dashed=1;html=1;rounded=0;fontSize=24;exitX=1;exitY=0.5;exitDx=0;exitDy=0;entryX=0.5;entryY=1;entryDx=0;entryDy=0;" edge="1" parent="1" source="ElCQ_ME15FlK9ruMkMYT-17" target="ElCQ_ME15FlK9ruMkMYT-29">
          <mxGeometry width="50" height="50" relative="1" as="geometry">
            <mxPoint x="390" y="620" as="sourcePoint" />
            <mxPoint x="440" y="570" as="targetPoint" />
          </mxGeometry>
        </mxCell>
        <mxCell id="ElCQ_ME15FlK9ruMkMYT-31" value="推薦服務列表" style="ellipse;whiteSpace=wrap;html=1;fontSize=24;" vertex="1" parent="1">
          <mxGeometry x="1020" y="470" width="180" height="160" as="geometry" />
        </mxCell>
        <mxCell id="ElCQ_ME15FlK9ruMkMYT-32" value="" style="endArrow=classic;html=1;rounded=0;fontSize=24;exitX=1;exitY=0.5;exitDx=0;exitDy=0;entryX=0;entryY=0.5;entryDx=0;entryDy=0;" edge="1" parent="1" source="ElCQ_ME15FlK9ruMkMYT-29" target="ElCQ_ME15FlK9ruMkMYT-31">
          <mxGeometry width="50" height="50" relative="1" as="geometry">
            <mxPoint x="840" y="560" as="sourcePoint" />
            <mxPoint x="440" y="570" as="targetPoint" />
          </mxGeometry>
        </mxCell>
        <mxCell id="ElCQ_ME15FlK9ruMkMYT-33" value="" style="endArrow=classic;html=1;rounded=0;fontSize=24;exitX=0.5;exitY=1;exitDx=0;exitDy=0;" edge="1" parent="1" source="ElCQ_ME15FlK9ruMkMYT-31" target="ElCQ_ME15FlK9ruMkMYT-29">
          <mxGeometry width="50" height="50" relative="1" as="geometry">
            <mxPoint x="440" y="660" as="sourcePoint" />
            <mxPoint x="940" y="800" as="targetPoint" />
            <Array as="points">
              <mxPoint x="1060" y="700" />
              <mxPoint x="870" y="700" />
            </Array>
          </mxGeometry>
        </mxCell>
        <mxCell id="ElCQ_ME15FlK9ruMkMYT-34" value="推薦回饋" style="text;html=1;strokeColor=none;fillColor=none;align=center;verticalAlign=middle;whiteSpace=wrap;rounded=0;fontSize=24;" vertex="1" parent="1">
          <mxGeometry x="900" y="700" width="130" height="30" as="geometry" />
        </mxCell>
      </root>
    </mxGraphModel>
  </diagram>
  <diagram id="1NCWEjhOBoDvCMJmZ1mz" name="消費特徵模型訓練">
    <mxGraphModel dx="2074" dy="1187" grid="1" gridSize="10" guides="1" tooltips="1" connect="1" arrows="1" fold="1" page="1" pageScale="1" pageWidth="827" pageHeight="1169" math="0" shadow="0">
      <root>
        <mxCell id="0" />
        <mxCell id="1" parent="0" />
        <mxCell id="SLhTL3J1dAdtY759ORS7-2" value="Actor" style="shape=umlActor;verticalLabelPosition=bottom;verticalAlign=top;html=1;outlineConnect=0;" vertex="1" parent="1">
          <mxGeometry x="70" y="450" width="30" height="60" as="geometry" />
        </mxCell>
        <mxCell id="SLhTL3J1dAdtY759ORS7-6" value="消費預測模型訓練" style="text;html=1;strokeColor=none;fillColor=none;align=center;verticalAlign=middle;whiteSpace=wrap;rounded=0;fontSize=24;" vertex="1" parent="1">
          <mxGeometry x="520" y="270" width="280" height="30" as="geometry" />
        </mxCell>
        <mxCell id="Waa5VXAnRowgw368cDYK-1" value="消費特徵模型" style="ellipse;whiteSpace=wrap;html=1;aspect=fixed;fontSize=24;" vertex="1" parent="1">
          <mxGeometry x="150" y="640" width="240" height="240" as="geometry" />
        </mxCell>
        <mxCell id="Waa5VXAnRowgw368cDYK-3" value="" style="endArrow=classic;html=1;rounded=0;fontSize=24;exitX=1;exitY=0.3333333333333333;exitDx=0;exitDy=0;exitPerimeter=0;" edge="1" parent="1" source="SLhTL3J1dAdtY759ORS7-2" target="Waa5VXAnRowgw368cDYK-4">
          <mxGeometry width="50" height="50" relative="1" as="geometry">
            <mxPoint x="390" y="630" as="sourcePoint" />
            <mxPoint x="630" y="470" as="targetPoint" />
          </mxGeometry>
        </mxCell>
        <mxCell id="Waa5VXAnRowgw368cDYK-4" value="服務" style="rounded=1;whiteSpace=wrap;html=1;fontSize=24;" vertex="1" parent="1">
          <mxGeometry x="570" y="440" width="120" height="60" as="geometry" />
        </mxCell>
        <mxCell id="Waa5VXAnRowgw368cDYK-5" value="消費" style="text;html=1;strokeColor=none;fillColor=none;align=center;verticalAlign=middle;whiteSpace=wrap;rounded=0;fontSize=24;" vertex="1" parent="1">
          <mxGeometry x="280" y="440" width="150" height="30" as="geometry" />
        </mxCell>
        <mxCell id="Waa5VXAnRowgw368cDYK-8" value="" style="endArrow=classic;html=1;rounded=0;fontSize=24;" edge="1" parent="1" target="Waa5VXAnRowgw368cDYK-1">
          <mxGeometry width="50" height="50" relative="1" as="geometry">
            <mxPoint x="100" y="520" as="sourcePoint" />
            <mxPoint x="440" y="580" as="targetPoint" />
          </mxGeometry>
        </mxCell>
        <mxCell id="Waa5VXAnRowgw368cDYK-9" value="消費者特徵" style="text;html=1;strokeColor=none;fillColor=none;align=center;verticalAlign=middle;whiteSpace=wrap;rounded=0;fontSize=24;" vertex="1" parent="1">
          <mxGeometry x="80" y="570" width="160" height="30" as="geometry" />
        </mxCell>
        <mxCell id="Waa5VXAnRowgw368cDYK-12" value="某次消費：" style="text;html=1;strokeColor=none;fillColor=none;align=center;verticalAlign=middle;whiteSpace=wrap;rounded=0;fontSize=24;" vertex="1" parent="1">
          <mxGeometry x="60" y="370" width="190" height="30" as="geometry" />
        </mxCell>
        <mxCell id="Waa5VXAnRowgw368cDYK-13" value="" style="endArrow=classic;html=1;rounded=0;fontSize=24;exitX=1;exitY=0.5;exitDx=0;exitDy=0;" edge="1" parent="1" source="Waa5VXAnRowgw368cDYK-1">
          <mxGeometry width="50" height="50" relative="1" as="geometry">
            <mxPoint x="390" y="870" as="sourcePoint" />
            <mxPoint x="540" y="760" as="targetPoint" />
          </mxGeometry>
        </mxCell>
        <mxCell id="Waa5VXAnRowgw368cDYK-14" value="預測的服務特徵" style="rounded=1;whiteSpace=wrap;html=1;fontSize=24;" vertex="1" parent="1">
          <mxGeometry x="540" y="730" width="180" height="60" as="geometry" />
        </mxCell>
        <mxCell id="Waa5VXAnRowgw368cDYK-15" value="" style="endArrow=classic;html=1;rounded=0;fontSize=24;exitX=0.5;exitY=1;exitDx=0;exitDy=0;entryX=0.5;entryY=0;entryDx=0;entryDy=0;" edge="1" parent="1" source="Waa5VXAnRowgw368cDYK-4" target="Waa5VXAnRowgw368cDYK-14">
          <mxGeometry width="50" height="50" relative="1" as="geometry">
            <mxPoint x="390" y="870" as="sourcePoint" />
            <mxPoint x="440" y="820" as="targetPoint" />
          </mxGeometry>
        </mxCell>
        <mxCell id="Waa5VXAnRowgw368cDYK-16" value="真實的服務特徵" style="text;html=1;strokeColor=none;fillColor=none;align=center;verticalAlign=middle;whiteSpace=wrap;rounded=0;fontSize=24;" vertex="1" parent="1">
          <mxGeometry x="440" y="585" width="190" height="30" as="geometry" />
        </mxCell>
        <mxCell id="Waa5VXAnRowgw368cDYK-17" value="匹配程度達到80%" style="text;html=1;strokeColor=none;fillColor=none;align=center;verticalAlign=middle;whiteSpace=wrap;rounded=0;fontSize=24;" vertex="1" parent="1">
          <mxGeometry x="520" y="850" width="260" height="30" as="geometry" />
        </mxCell>
      </root>
    </mxGraphModel>
  </diagram>
</mxfile>
